<svg width="1183" height="438" viewBox="0 0 1183 438" fill="none" xmlns="http://www.w3.org/2000/svg">
<path d="M652.084 55.0554V167.908C652.084 169.027 652.643 169.726 653.762 170.006C658.516 170.845 663.551 171.264 668.865 171.264C687.464 171.264 701.028 166.51 709.559 157C718.089 147.351 722.354 131.479 722.354 109.384C722.354 89.5264 717.949 74.9829 709.139 65.7533C700.469 56.3839 687.044 51.6991 668.865 51.6991C663.551 51.6991 658.516 52.1187 653.762 52.9577C652.643 53.2374 652.084 53.9366 652.084 55.0554ZM640.966 188.674C637.47 188.255 634.603 186.787 632.366 184.269C630.128 181.612 629.01 178.536 629.01 175.04V47.9234C629.01 44.4274 630.128 41.4207 632.366 38.9036C634.603 36.2466 637.47 34.7083 640.966 34.2888C649.357 33.3099 658.656 32.8205 668.865 32.8205C693.617 32.8205 712.356 39.2532 725.081 52.1187C737.947 64.8443 744.379 83.9327 744.379 109.384C744.379 163.223 719.208 190.143 668.865 190.143C658.656 190.143 649.357 189.653 640.966 188.674ZM818.624 133.087C807.157 133.087 798.487 135.045 792.613 138.961C786.88 142.736 784.013 147.911 784.013 154.483C784.013 159.657 785.551 163.922 788.628 167.279C791.704 170.635 795.41 172.313 799.745 172.313C808.975 172.313 816.317 169.446 821.771 163.713C827.364 157.839 830.161 149.868 830.161 139.8V134.765C830.161 133.647 829.532 133.087 828.273 133.087H818.624ZM794.501 190.143C784.992 190.143 777.161 187.066 771.008 180.913C764.995 174.76 761.988 166.649 761.988 156.581C761.988 144.275 766.673 134.765 776.042 128.053C785.412 121.201 799.606 117.775 818.624 117.775H828.273C829.532 117.775 830.161 117.145 830.161 115.887V113.579C830.161 106.168 828.413 100.993 824.917 98.0568C821.421 95.1201 815.128 93.6518 806.038 93.6518C797.927 93.6518 788.278 95.3299 777.091 98.6861C774.993 99.3853 772.966 99.1056 771.008 97.847C769.19 96.4486 768.281 94.6307 768.281 92.3932C768.281 89.5964 769.12 87.0792 770.798 84.8417C772.476 82.6042 774.644 81.2058 777.301 80.6465C787.369 78.1293 796.949 76.8707 806.038 76.8707C823.658 76.8707 835.755 80.0172 842.327 86.3101C848.9 92.603 852.186 104.14 852.186 120.921V177.767C852.186 180.564 851.137 183.011 849.04 185.109C847.082 187.066 844.705 188.045 841.908 188.045C839.111 188.045 836.664 187.066 834.566 185.109C832.608 183.011 831.559 180.564 831.42 177.767L831.21 172.523C831.21 172.383 831.14 172.313 831 172.313C830.72 172.313 830.581 172.383 830.581 172.523C822.47 184.269 810.443 190.143 794.501 190.143ZM914.943 141.897C900.679 138.401 890.611 133.996 884.737 128.682C879.004 123.228 876.137 116.446 876.137 108.335C876.137 98.5462 879.633 90.8549 886.625 85.2612C893.757 79.6676 904.245 76.8707 918.09 76.8707C927.039 76.8707 936.059 77.8496 945.149 79.8074C947.666 80.3668 949.694 81.7652 951.232 84.0027C952.91 86.1003 953.749 88.4776 953.749 91.1346C953.749 93.3721 952.84 95.1201 951.022 96.3787C949.204 97.6373 947.247 97.917 945.149 97.2177C936.339 94.8404 928.018 93.6518 920.187 93.6518C905.504 93.6518 898.162 97.847 898.162 106.238C898.162 110.433 899.56 113.859 902.357 116.516C905.154 119.173 910.049 121.341 917.041 123.019C933.123 126.794 943.96 131.339 949.554 136.653C955.148 141.827 957.945 149.519 957.945 159.727C957.945 169.236 954.239 176.718 946.827 182.172C939.555 187.486 928.927 190.143 914.943 190.143C905.853 190.143 896.764 188.954 887.674 186.577C885.157 185.878 883.129 184.479 881.591 182.382C880.052 180.144 879.283 177.697 879.283 175.04C879.283 172.942 880.122 171.264 881.8 170.006C883.618 168.747 885.506 168.467 887.464 169.167C896.134 171.963 904.595 173.362 912.845 173.362C928.228 173.362 935.919 168.817 935.919 159.727C935.919 155.392 934.381 151.896 931.305 149.239C928.228 146.442 922.774 143.995 914.943 141.897ZM1004.7 184.899C1002.6 186.996 1000.02 188.045 996.941 188.045C993.864 188.045 991.277 186.996 989.18 184.899C987.082 182.801 986.033 180.214 986.033 177.138V41.6305C986.033 38.554 987.082 35.9669 989.18 33.8693C991.277 31.7716 993.864 30.7228 996.941 30.7228C1000.02 30.7228 1002.6 31.7716 1004.7 33.8693C1006.94 35.9669 1008.06 38.554 1008.06 41.6305V92.3932C1008.06 92.533 1008.13 92.603 1008.27 92.603C1008.41 92.603 1008.55 92.533 1008.69 92.3932C1018.48 82.0449 1029.45 76.8707 1041.62 76.8707C1054.35 76.8707 1063.65 80.4367 1069.52 87.5686C1075.39 94.5607 1078.33 106.377 1078.33 123.019V177.347C1078.33 180.284 1077.28 182.801 1075.18 184.899C1073.08 186.996 1070.57 188.045 1067.63 188.045C1064.69 188.045 1062.18 186.996 1060.08 184.899C1057.98 182.801 1056.93 180.284 1056.93 177.347V127.214C1056.93 114.209 1055.39 105.538 1052.32 101.203C1049.24 96.8681 1043.58 94.7006 1035.33 94.7006C1028.89 94.7006 1022.74 97.7771 1016.87 103.93C1010.99 109.943 1008.06 116.306 1008.06 123.019V177.138C1008.06 180.214 1006.94 182.801 1004.7 184.899ZM647.888 403.899C645.791 405.996 643.204 407.045 640.127 407.045C637.051 407.045 634.394 405.996 632.156 403.899C630.058 401.661 629.01 399.004 629.01 395.928V265.036C629.01 261.959 630.058 259.372 632.156 257.274C634.394 255.037 637.051 253.918 640.127 253.918C647.539 253.918 652.923 257.204 656.279 263.777L697.602 343.906C697.602 344.046 697.672 344.116 697.812 344.116C697.952 344.116 698.022 344.046 698.022 343.906L739.135 264.196C742.631 257.344 748.225 253.918 755.916 253.918C759.133 253.918 761.86 255.037 764.097 257.274C766.335 259.512 767.453 262.239 767.453 265.455V395.508C767.453 398.725 766.335 401.452 764.097 403.689C761.86 405.926 759.133 407.045 755.916 407.045C752.7 407.045 749.973 405.926 747.736 403.689C745.498 401.452 744.379 398.725 744.379 395.508V293.983C744.379 293.843 744.309 293.773 744.17 293.773C744.03 293.773 743.96 293.843 743.96 293.983L712.915 355.653C709.699 361.946 704.664 365.093 697.812 365.093C690.96 365.093 685.925 361.946 682.709 355.653L651.664 293.983C651.664 293.843 651.594 293.773 651.454 293.773C651.314 293.773 651.245 293.843 651.245 293.983V395.928C651.245 399.004 650.126 401.661 647.888 403.899ZM834.414 409.143C822.108 409.143 813.088 405.787 807.354 399.074C801.621 392.222 798.754 380.895 798.754 365.093V308.666C798.754 305.73 799.803 303.212 801.9 301.115C803.998 299.017 806.515 297.968 809.452 297.968C812.389 297.968 814.906 299.017 817.003 301.115C819.241 303.212 820.36 305.73 820.36 308.666V361.946C820.36 373.553 821.898 381.524 824.974 385.859C828.051 390.194 833.295 392.362 840.707 392.362C847.279 392.362 853.432 389.495 859.166 383.761C865.039 377.888 867.976 371.665 867.976 365.093V308.876C867.976 305.8 869.025 303.212 871.122 301.115C873.36 299.017 876.017 297.968 879.093 297.968C882.17 297.968 884.757 299.017 886.854 301.115C888.952 303.212 890.001 305.8 890.001 308.876V396.767C890.001 399.564 888.952 402.011 886.854 404.109C884.897 406.066 882.519 407.045 879.723 407.045C876.926 407.045 874.478 406.066 872.381 404.109C870.283 402.011 869.164 399.564 869.025 396.767V393.62C869.025 393.481 868.955 393.411 868.815 393.411C868.675 393.411 868.535 393.481 868.395 393.62C858.467 403.969 847.139 409.143 834.414 409.143ZM955.912 360.897C941.649 357.401 931.58 352.996 925.707 347.682C919.973 342.228 917.106 335.446 917.106 327.335C917.106 317.546 920.602 309.855 927.594 304.261C934.726 298.668 945.214 295.871 959.059 295.871C968.009 295.871 977.029 296.85 986.118 298.807C988.635 299.367 990.663 300.765 992.201 303.003C993.88 305.1 994.719 307.478 994.719 310.135C994.719 312.372 993.81 314.12 991.992 315.379C990.174 316.637 988.216 316.917 986.118 316.218C977.308 313.84 968.988 312.652 961.156 312.652C946.473 312.652 939.131 316.847 939.131 325.238C939.131 329.433 940.53 332.859 943.327 335.516C946.123 338.173 951.018 340.341 958.01 342.019C974.092 345.794 984.93 350.339 990.523 355.653C996.117 360.827 998.914 368.519 998.914 378.727C998.914 388.236 995.208 395.718 987.796 401.172C980.525 406.486 969.897 409.143 955.912 409.143C946.823 409.143 937.733 407.954 928.643 405.577C926.126 404.878 924.098 403.479 922.56 401.382C921.022 399.144 920.253 396.697 920.253 394.04C920.253 391.942 921.092 390.264 922.77 389.006C924.588 387.747 926.476 387.467 928.433 388.167C937.104 390.963 945.564 392.362 953.815 392.362C969.197 392.362 976.889 387.817 976.889 378.727C976.889 374.392 975.35 370.896 972.274 368.239C969.197 365.442 963.744 362.995 955.912 360.897ZM1033.3 261.26C1033.3 258.043 1034.41 255.317 1036.65 253.079C1039.03 250.842 1041.76 249.723 1044.83 249.723C1047.91 249.723 1050.57 250.842 1052.8 253.079C1055.18 255.317 1056.37 258.043 1056.37 261.26C1056.37 264.476 1055.18 267.203 1052.8 269.441C1050.57 271.678 1047.91 272.797 1044.83 272.797C1041.76 272.797 1039.03 271.678 1036.65 269.441C1034.41 267.203 1033.3 264.476 1033.3 261.26ZM1052.8 403.689C1050.57 405.926 1047.91 407.045 1044.83 407.045C1041.76 407.045 1039.03 405.926 1036.65 403.689C1034.41 401.452 1033.3 398.725 1033.3 395.508V309.505C1033.3 306.289 1034.41 303.562 1036.65 301.325C1039.03 299.087 1041.76 297.968 1044.83 297.968C1047.91 297.968 1050.57 299.087 1052.8 301.325C1055.18 303.562 1056.37 306.289 1056.37 309.505V395.508C1056.37 398.725 1055.18 401.452 1052.8 403.689ZM1139.06 409.143C1122.28 409.143 1109.35 404.388 1100.26 394.879C1091.17 385.23 1086.62 371.106 1086.62 352.507C1086.62 334.187 1091.03 320.203 1099.84 310.554C1108.65 300.765 1121.02 295.871 1136.96 295.871C1144.38 295.871 1151.44 296.36 1158.15 297.339C1160.81 297.759 1162.97 299.017 1164.65 301.115C1166.47 303.212 1167.38 305.66 1167.38 308.457C1167.38 310.834 1166.4 312.722 1164.44 314.12C1162.63 315.519 1160.53 315.938 1158.15 315.379C1151.3 313.84 1144.8 313.071 1138.64 313.071C1128.99 313.071 1121.72 316.218 1116.83 322.511C1112.07 328.804 1109.7 338.802 1109.7 352.507C1109.7 366.491 1112.21 376.56 1117.25 382.713C1122.42 388.866 1130.25 391.942 1140.74 391.942C1147.31 391.942 1153.61 391.033 1159.62 389.215C1161.86 388.516 1163.88 388.866 1165.7 390.264C1167.52 391.523 1168.43 393.271 1168.43 395.508C1168.43 398.305 1167.52 400.822 1165.7 403.06C1163.88 405.297 1161.65 406.696 1158.99 407.255C1152.28 408.514 1145.63 409.143 1139.06 409.143Z" fill="white"/>
<path d="M182.086 35.0057C230.378 35.0057 276.693 53.5444 310.84 86.5435C344.988 119.543 364.172 164.299 364.172 210.967C364.172 257.634 344.988 302.391 310.84 335.39C276.693 368.389 230.378 386.927 182.086 386.927L182.086 351.735C220.72 351.735 257.771 336.904 285.09 310.505C312.408 284.106 327.755 248.301 327.755 210.967C327.755 173.632 312.408 137.827 285.089 111.428C257.771 85.0289 220.72 70.1979 182.086 70.1979L182.086 35.0057Z" fill="#1397D5"/>
<path d="M182.5 118C208.093 118 232.639 127.798 250.736 145.239C268.833 162.68 279 186.335 279 211C279 235.665 268.833 259.32 250.736 276.761C232.639 294.202 208.093 304 182.5 304L182.5 285.4C202.975 285.4 222.611 277.561 237.089 263.609C251.566 249.656 259.7 230.732 259.7 211C259.7 191.268 251.566 172.344 237.089 158.391C222.611 144.439 202.975 136.6 182.5 136.6L182.5 118Z" fill="#1397D5"/>
<path d="M75.0586 68.6112C106.168 46.7696 143.633 35.0057 182.086 35.0057L182.086 70.1979C151.324 70.1979 121.351 79.609 96.4641 97.0823L75.0586 68.6112Z" fill="#7DD5FF"/>
<path d="M182.086 386.927C143.633 386.927 106.168 375.164 75.0585 353.322C43.9496 331.48 20.7945 300.682 8.91192 265.341C-2.97065 230.001 -2.97064 191.932 8.91194 156.592C20.7945 121.251 43.9496 90.4529 75.0586 68.6112L96.4641 97.0823C71.5769 114.556 53.0528 139.194 43.5468 167.467C34.0407 195.739 34.0407 226.194 43.5467 254.466C53.0528 282.739 71.5769 307.378 96.464 324.851C121.351 342.324 151.324 351.735 182.086 351.735L182.086 386.927Z" fill="#46B9F0"/>
<line x1="489.447" x2="489.447" y2="422.53" stroke="white" stroke-width="14.5669"/>
<circle cx="182" cy="211" r="30" fill="#004C70"/>
</svg>
